# Blender v2.77 (sub 0) OBJ File: 'basicmushroom.blend'
# www.blender.org
mtllib basicmushroom.mtl
v -0.209179 0.148827 -0.209179
v -0.209179 0.148827 0.209179
v 0.209179 0.148827 0.209179
v 0.209179 0.148827 -0.209179
v -0.148827 -0.148827 -0.148827
v -0.148827 -0.148827 0.148827
v 0.148827 -0.148827 0.148827
v 0.148827 -0.148827 -0.148827
v -0.109192 -0.055982 -0.109192
v -0.109192 -0.055982 0.109192
v 0.109192 -0.055982 0.109192
v 0.109192 -0.055982 -0.109192
v -0.119673 0.070199 -0.119673
v -0.119673 0.070199 0.119673
v 0.119673 0.070199 0.119673
v 0.119673 0.070199 -0.119673
v -0.100213 0.020077 -0.100213
v -0.100213 0.020077 0.100213
v 0.100213 0.020077 0.100213
v 0.100213 0.020077 -0.100213
v -0.005093 -0.149564 -0.013130
v -0.258864 -0.182374 -0.258864
v -0.258864 -0.182374 0.258864
v 0.258864 -0.182374 -0.258864
v 0.258864 -0.182374 0.258864
v -0.324380 -0.144879 -0.324380
v -0.324380 -0.144879 0.324380
v 0.324380 -0.144879 -0.324380
v 0.324380 -0.144879 0.324380
v -0.115585 -0.331119 -0.115585
v -0.115585 -0.331119 0.115585
v 0.115585 -0.331119 -0.115585
v 0.115585 -0.331119 0.115585
v -0.305105 -0.219089 0.305106
v 0.305106 -0.219089 0.305105
v -0.305106 -0.219089 -0.305105
v 0.305106 -0.219089 -0.305106
v -0.200055 -0.265684 0.200055
v -0.200055 -0.265684 -0.200055
v 0.200055 -0.265684 0.200055
v 0.200055 -0.265684 -0.200055
v 0.349584 -0.174922 0.349583
v 0.349584 -0.174922 -0.349584
v -0.349583 -0.174922 0.349584
v -0.349584 -0.174922 -0.349583
vn -0.6925 0.2024 -0.6925
vn -0.6925 0.2024 0.6925
vn 0.6925 0.2024 0.6925
vn 0.6925 0.2024 -0.6925
vn 0.2987 0.9064 -0.2987
vn 0.2987 0.9064 0.2987
vn -0.1590 0.9744 -0.1590
vn -0.1590 0.9744 0.1590
vn -0.6546 0.3782 -0.6546
vn -0.2987 0.9064 -0.2987
vn -0.2987 0.9064 0.2987
vn -0.6546 0.3782 0.6546
vn 0.6546 0.3782 0.6546
vn 0.6546 0.3782 -0.6546
vn -0.4651 -0.7532 -0.4651
vn 0.4651 -0.7532 -0.4651
vn 0.6930 -0.1986 0.6930
vn 0.6930 -0.1986 -0.6930
vn -0.6930 -0.1986 0.6930
vn -0.6930 -0.1986 -0.6930
vn -0.4651 -0.7532 0.4651
vn 0.4651 -0.7532 0.4651
vn 0.1590 0.9744 -0.1590
vn -0.2658 0.9267 0.2658
vn 0.2658 0.9267 0.2658
vn 0.1590 0.9744 0.1590
vn -0.2658 0.9267 -0.2658
vn 0.2658 0.9267 -0.2658
vn 0.2469 -0.9370 0.2469
vn -0.2469 -0.9370 0.2469
vn -0.2508 -0.9349 0.2508
vn 0.2508 -0.9349 0.2508
vn -0.2508 -0.9349 -0.2508
vn 0.2508 -0.9349 -0.2508
vn -0.2469 -0.9370 -0.2469
vn 0.2469 -0.9370 -0.2469
vn -0.7067 -0.0337 -0.7067
vn 0.7067 -0.0337 -0.7067
vn 0.3523 -0.8670 -0.3523
vn -0.3523 -0.8670 -0.3523
vn 0.7067 -0.0337 0.7067
vn 0.3523 -0.8670 0.3523
vn -0.7067 -0.0337 0.7067
vn -0.3523 -0.8670 0.3523
usemtl Material.001
s 1
f 1//1 2//2 3//3 4//4
f 8//5 7//6 25//7 24//8
f 9//9 5//10 6//11 10//12
f 10//12 6//11 7//6 11//13
f 11//13 7//6 8//5 12//14
f 13//15 1//1 4//4 16//16
f 5//10 9//9 12//14 8//5
f 19//17 11//13 12//14 20//18
f 18//19 10//12 11//13 19//17
f 17//20 9//9 10//12 18//19
f 1//1 13//15 14//21 2//2
f 2//2 14//21 15//22 3//3
f 3//3 15//22 16//16 4//4
f 17//20 13//15 16//16 20//18
f 9//9 17//20 20//18 12//14
f 13//15 17//20 18//19 14//21
f 14//21 18//19 19//17 15//22
f 15//22 19//17 20//18 16//16
f 25//7 23//23 27//24 29//25
f 5//10 8//5 24//8 22//26
f 7//6 6//11 23//23 25//7
f 6//11 5//10 22//26 23//23
f 23//23 22//26 26//27 27//24
f 24//8 25//7 29//25 28//28
f 22//26 24//8 28//28 26//27
usemtl Material.002
f 40//29 38//30 31//31 33//32
f 30//33 32//34 33//32 31//31
f 38//30 39//35 30//33 31//31
f 41//36 40//29 33//32 32//34
f 39//35 41//36 32//34 30//33
f 45//37 43//38 37//39 36//40
f 43//38 42//41 35//42 37//39
f 44//43 45//37 36//40 34//44
f 42//41 44//43 34//44 35//42
f 36//40 37//39 41//36 39//35
f 37//39 35//42 40//29 41//36
f 34//44 36//40 39//35 38//30
f 35//42 34//44 38//30 40//29
f 29//25 27//24 44//43 42//41
f 27//24 26//27 45//37 44//43
f 28//28 29//25 42//41 43//38
f 26//27 28//28 43//38 45//37
